<svg width="57" height="212" viewBox="0 0 57 212" fill="none" xmlns="http://www.w3.org/2000/svg">
<rect width="57" height="212" rx="28.5" fill="white"/>
<path d="M40.9872 93.2622L35.9665 124.84C35.5921 127.064 34.631 127.565 33.2425 126.561L25.7115 119.099L22.0248 123.834C21.6519 124.337 21.2775 124.84 20.4225 124.84L21.0107 114.433L35.0585 97.2826C35.6451 96.4923 34.8978 96.2052 34.1505 96.853L16.6843 111.635L9.15174 108.549C7.49643 107.832 7.49643 106.323 9.52622 105.321L38.7966 90.0342C40.2382 89.4599 41.4677 90.4661 40.9872 93.2622Z" fill="#0F2D34"/>
<path d="M28.5 17.0122C37.6515 17.0122 45.0698 25.3343 45.0698 35.6007C45.0698 45.8671 37.6515 54.1891 28.5 54.1891C25.5717 54.1948 22.6949 53.3254 20.1654 51.6704L11.9369 54.1891L14.1771 44.9544C12.7007 42.1158 11.9251 38.8871 11.9303 35.6007C11.9303 25.3343 19.3485 17.0122 28.5 17.0122ZM22.853 26.8641L22.5216 26.879C22.3074 26.8955 22.098 26.9587 21.9053 27.0648C21.7256 27.1792 21.5615 27.3219 21.4181 27.4887C21.2193 27.6987 21.1066 27.8809 20.9856 28.0575C20.3728 28.9514 20.0428 30.0489 20.0478 31.1766C20.0511 32.0874 20.2632 32.9741 20.5946 33.8032C21.2723 35.4798 22.3874 37.255 23.8588 38.9001C24.2134 39.296 24.5614 39.6938 24.9359 40.0637C26.7642 41.8694 28.9429 43.1717 31.2986 43.8669L32.2398 44.0287C32.5464 44.0473 32.8529 44.0212 33.1611 44.0045C33.6436 43.976 34.1147 43.8294 34.5413 43.5751C34.7582 43.4493 34.9699 43.3129 35.176 43.1662C35.176 43.1662 35.2461 43.1129 35.3831 42.9989C35.6068 42.813 35.7443 42.681 35.9299 42.4635C36.0691 42.3024 36.1851 42.1153 36.2779 41.9021C36.4071 41.5992 36.5363 41.0211 36.5894 40.5396C36.6291 40.1716 36.6175 39.9708 36.6126 39.8463C36.6059 39.6474 36.4585 39.441 36.2977 39.3537L35.3334 38.8685C35.3334 38.8685 33.8918 38.164 33.0103 37.7142C32.918 37.6691 32.8192 37.6433 32.7187 37.638C32.6053 37.6246 32.4907 37.6388 32.3826 37.6796C32.2746 37.7203 32.1756 37.7866 32.0923 37.874C32.0841 37.8703 31.973 37.9763 30.775 39.6046C30.7063 39.7083 30.6116 39.7866 30.503 39.8296C30.3944 39.8727 30.2768 39.8785 30.1653 39.8463C30.0573 39.814 29.9515 39.773 29.8488 39.7236C29.6433 39.6269 29.5721 39.5897 29.4312 39.5228C28.4799 39.0579 27.5994 38.4289 26.8215 37.6584C26.6127 37.4539 26.4189 37.2309 26.22 37.0152C25.5682 36.3148 25.0001 35.5226 24.5299 34.6582L24.4321 34.4816C24.363 34.3623 24.3063 34.2344 24.2631 34.1006C24.2002 33.8273 24.3642 33.608 24.3642 33.608C24.3642 33.608 24.7669 33.1135 24.9541 32.8458C25.1364 32.5856 25.2905 32.3328 25.3899 32.1525C25.5854 31.7993 25.6467 31.4368 25.544 31.1562C25.08 29.8847 24.6006 28.6201 24.1057 27.3623C24.008 27.1132 23.718 26.9347 23.4545 26.8994C23.3651 26.887 23.2756 26.8771 23.1861 26.8697C22.9636 26.8553 22.7405 26.8578 22.5183 26.8771L22.853 26.8641Z" fill="#0F2D34"/>
<path d="M45.051 190.598C44.9719 190.05 44.6656 189.581 44.2069 189.303L37.4204 184.816L37.3645 184.781C37.0799 184.621 36.7657 184.539 36.4475 184.542C35.8789 184.542 35.3359 184.784 34.959 185.208L32.956 187.456C32.8703 187.548 32.591 187.68 32.5062 187.685C32.483 187.683 30.1756 187.496 25.9275 182.729C21.6871 177.971 21.5072 175.374 21.5058 175.374C21.5081 175.241 21.6246 174.929 21.7075 174.832L23.4156 172.916C24.0173 172.239 24.1977 171.117 23.8407 170.248L20.0685 162.283C19.7943 161.65 19.2617 161.259 18.6709 161.259C18.2529 161.259 17.8495 161.453 17.5342 161.807L12.8781 167.02C12.4317 167.518 12.0473 168.389 11.9635 169.091C11.9227 169.426 11.0966 177.427 20.8728 188.399C29.1724 197.712 35.6441 198.435 37.4313 198.435C37.6489 198.438 37.8665 198.425 38.0827 198.398C38.7057 198.304 39.4812 197.874 39.9248 197.375L44.5771 192.155C44.9568 191.727 45.1301 191.161 45.051 190.598Z" fill="#0F2D34"/>
</svg>
