<svg width="50" height="58" viewBox="0 0 50 58" fill="none" xmlns="http://www.w3.org/2000/svg">
<path d="M25.0004 0C14.781 0 6.40601 7.74878 6.40601 17.2062C6.40601 20.8707 7.66726 24.2764 9.80163 27.0755L22.731 47.818C24.5416 50.0133 25.7454 49.5963 27.251 47.702L41.5123 25.1806C41.7998 24.6969 42.026 24.1819 42.2229 23.6558C43.1275 21.6092 43.5929 19.4184 43.5929 17.2062C43.5935 7.74878 35.221 0 25.0004 0ZM25.0004 8.06198C30.5041 8.06198 34.8804 12.1139 34.8804 17.2062C34.8804 22.2986 30.5041 26.3493 25.0004 26.3493C19.4973 26.3493 15.1191 22.2998 15.1191 17.2068C15.1191 12.1139 19.4973 8.06256 24.9998 8.06256" fill="#FFF000"/>
<path d="M36.8206 28.3662L36.7906 28.4393L36.8169 28.3726L36.8206 28.3662ZM15.0037 40.0526C6.175 41.2103 0 43.9798 0 48.0566C0 53.548 10.3175 57.9995 25 57.9995C39.6825 57.9995 50 53.548 50 48.0566C50 43.9798 43.8256 41.2103 34.9975 40.0526L33.7744 41.9852C40.4281 42.8418 45 44.6421 45 46.7313C45 49.6603 36.0456 52.0342 25 52.0342C13.9544 52.0342 5 49.6603 5 46.7313C4.99937 44.6491 9.54125 42.8505 16.2156 41.9904L15.0037 40.0526Z" fill="#FFF000"/>
</svg>
