<svg width="432" height="154" viewBox="0 0 432 154" fill="none" xmlns="http://www.w3.org/2000/svg">
<g filter="url(#filter0_in_178_396)">
<path d="M76.8995 142.417C74.6199 145.315 71.8796 146.983 68.6786 147.423C65.4775 147.862 62.5226 147.016 59.8138 144.885L9.82724 105.562C7.05546 103.381 5.41844 100.665 4.91619 97.4149C4.46349 94.1013 5.40173 90.9641 7.73092 88.0034C10.2088 84.8536 13.0864 83.1402 16.3639 82.863C19.6279 82.4733 22.6143 83.3439 25.3231 85.4749L75.4987 124.947C78.2074 127.078 79.6756 129.814 79.9032 133.154C80.1804 136.432 79.1791 139.519 76.8995 142.417ZM125.075 109.82C121.038 111.782 116.773 113.364 112.278 114.568C107.821 115.665 103.476 116.261 99.2452 116.356C95.0512 116.345 91.3484 115.694 88.1368 114.403C84.8901 113.039 82.5136 110.808 81.0072 107.708C79.0805 103.743 78.8007 99.958 80.1678 96.3529C81.535 92.7478 83.9477 90.1941 87.406 88.6918C90.1084 87.4677 93.056 86.7483 96.2489 86.5335C99.4067 86.2466 102.6 85.9422 105.83 85.6202C109.132 85.2633 112.189 84.4017 115.001 83.0354C117.812 81.6692 119.583 80.3629 120.315 79.1165C121.046 77.8701 121.113 76.6342 120.518 75.4086C119.817 73.9668 118.482 73.1452 116.513 72.9436C114.544 72.7421 112.283 72.9496 109.731 73.5659L103.801 74.8431C97.692 76.2079 92.0892 77.1482 86.9931 77.6641C81.8619 78.1079 77.3867 77.6092 73.5673 76.168C69.785 74.6196 66.7904 71.5745 64.5834 67.0328C62.1662 62.0586 61.5742 57.3559 62.8073 52.9248C64.0053 48.4216 66.597 44.3106 70.5822 40.5917C74.5675 36.8728 79.4438 33.6121 85.211 30.8096C91.1225 27.937 96.6108 26.0275 101.676 25.0811C106.741 24.1347 111.06 24.2194 114.632 25.3352C118.276 26.416 120.904 28.6145 122.515 31.9307C124.232 35.4631 124.607 38.7115 123.642 41.6759C122.713 44.5332 120.663 46.7325 117.491 48.2739C115.4 49.2898 113.026 49.9978 110.369 50.3979C107.784 50.763 105.072 51.2342 102.234 51.8115C99.4324 52.2817 96.626 53.1999 93.8144 54.5661C91.2913 55.7922 89.5735 57.117 88.6612 58.5406C87.7139 59.8921 87.538 61.1806 88.1336 62.4061C88.8692 63.92 90.2773 64.6171 92.3578 64.4972C94.4383 64.3774 97.7063 63.8587 102.162 62.9412L108.9 61.4043C114.47 60.2127 119.55 59.5712 124.139 59.4797C128.729 59.3882 132.752 60.2403 136.209 62.0359C139.666 63.8315 142.498 67.0002 144.705 71.5419C147.367 77.0208 148.241 82.121 147.328 86.8425C146.379 91.4919 143.983 95.7306 140.14 99.5586C136.297 103.387 131.275 106.807 125.075 109.82ZM176.415 93.0694C172.53 93.6433 168.751 93.8369 165.077 93.6503C161.483 93.452 158.191 92.5608 155.203 90.9767C152.282 89.3016 149.747 86.6782 147.599 83.1064C145.519 79.4436 144.016 74.4802 143.091 68.2162C142.259 62.5865 142.298 57.6385 143.207 53.3721C144.116 49.1057 145.426 45.6309 147.136 42.9477C148.926 40.2527 150.652 38.4989 152.314 37.6862L151.386 35.5143L149.364 35.8129C145.717 36.3516 142.653 35.6294 140.172 33.6461C137.759 31.5719 136.214 28.5187 135.538 24.4865C134.873 20.5337 135.435 17.2098 137.225 14.5148C139.094 11.8082 141.852 10.1855 145.499 9.64674L188.198 3.34011C196.682 2.08699 201.509 5.42499 202.681 13.3541C203.208 16.9222 202.598 19.929 200.853 22.3743C199.108 24.8197 196.055 26.3645 191.693 27.0086L167.073 30.645C164.14 31.0783 162.925 32.9998 163.428 36.4093L164.746 45.3296C168.581 43.8718 172.552 42.232 176.658 40.4102C180.844 38.5767 184.879 37.373 188.764 36.7992C192.491 36.2487 195.389 36.6714 197.459 38.0671C199.596 39.3719 200.87 41.4119 201.28 44.1871C201.701 47.0416 201.084 49.4419 199.426 51.3881C197.837 53.2433 195.185 54.4858 191.47 55.1155C187.596 55.7686 183.391 55.8226 178.854 55.2774C174.318 54.7321 170.003 54.3162 165.909 54.0295L168.211 69.6103C168.433 71.1168 168.988 72.1287 169.874 72.6459C170.828 73.0721 172.141 72.6352 173.813 71.335C177.438 68.45 181.054 66.0524 184.66 64.1423C188.256 62.1529 191.877 60.8889 195.524 60.3501C200.678 59.5889 204.763 60.363 207.777 62.6724C210.872 64.9701 212.741 68.2995 213.385 72.6605C214.076 77.3387 213.181 81.1573 210.702 84.1162C208.301 87.0635 203.969 88.9997 197.705 89.9249L176.415 93.0694ZM241.668 37.3586L262.612 14.2018C266.34 10.0479 270.107 7.91691 273.914 7.80889C277.731 7.6213 281.008 8.90273 283.746 11.6532C285.553 13.4041 286.623 15.591 286.954 18.214C287.285 20.837 286.761 23.5188 285.382 26.2595C284.004 29.0002 281.61 31.4575 278.201 33.6315L256.331 47.3532L256.03 49.8599C258.577 50.1657 261.523 50.8423 264.868 51.8897C268.214 52.9372 271.145 54.7423 273.663 57.3049C275.691 59.2436 277.372 61.3828 278.705 63.7226C280.118 66.0719 281.111 68.8954 281.684 72.1933C282.267 75.4116 282.271 79.4081 281.698 84.1829C281.23 88.0824 279.778 91.0968 277.343 93.2262C274.997 95.2857 271.754 96.067 267.616 95.5701C263.478 95.0733 260.433 93.5372 258.482 90.9619C256.62 88.3165 255.923 85.0441 256.391 81.1447C256.917 76.7678 256.616 73.2201 255.489 70.5015C254.452 67.713 252.851 65.5833 250.686 64.1125C248.522 62.6418 246.087 61.744 243.381 61.4191L237.532 60.7169L235.282 79.458C234.871 82.88 233.338 85.5617 230.683 87.5034C228.108 89.4545 224.99 90.2104 221.329 89.7709C217.669 89.3314 214.778 87.8542 212.658 85.3394C210.618 82.834 209.803 79.8704 210.214 76.4485L217.795 13.3016C218.216 9.80008 219.723 6.99415 222.318 4.88381C224.912 2.77348 228.079 1.94283 231.82 2.39187C235.799 2.86958 238.719 4.43112 240.581 7.07648C242.532 9.65182 243.303 12.6505 242.892 16.0724L240.384 36.9622L241.668 37.3586ZM280.122 98.6513C275.629 95.6029 273.545 91.8894 273.871 87.5106C274.231 83.0597 276.794 78.4666 281.559 73.7314L315.391 39.9683C318.497 36.8366 321.523 34.3334 324.469 32.4589C327.487 30.619 330.608 29.5842 333.83 29.3544C337.126 29.1593 340.688 29.9818 344.516 31.8217C350.296 34.599 353.867 38.2713 355.229 42.8386C356.663 47.4407 357.002 53.0278 356.245 59.6002L350.913 107.059C350.193 113.738 348.28 118.643 345.175 121.775C342.176 124.869 338.047 125.597 332.787 123.959C328.571 122.556 325.329 120.42 323.061 117.551C320.866 114.718 320.26 111.537 321.245 108.008C321.853 105.633 322.648 103.792 323.631 102.486C324.687 101.214 325.568 100.215 326.273 99.4867C326.837 98.8684 327.167 98.1821 327.263 97.4278C327.465 96.6359 327.097 96.0143 326.158 95.563L306.002 85.8773C305.063 85.426 304.311 85.5095 303.747 86.1277C303.29 86.7085 303.033 87.4295 302.975 88.2908C302.847 89.2966 302.581 90.5914 302.175 92.1751C301.77 93.7588 300.866 95.5475 299.463 97.5413C297.323 100.514 294.497 102.047 290.985 102.138C287.473 102.228 283.852 101.066 280.122 98.6513ZM331.389 79.4025L334.242 59.0312C334.445 58.2393 334.452 57.576 334.265 57.0412C334.184 56.4689 333.783 56.0091 333.06 55.662C332.338 55.3148 331.692 55.2712 331.122 55.5311C330.66 55.7534 330.146 56.1737 329.583 56.792L315.568 71.7997L331.389 79.4025ZM353.747 143.856C351.544 140.9 350.647 137.819 351.058 134.614C351.469 131.409 353.056 128.777 355.819 126.718L406.815 88.7129C409.643 86.6055 412.692 85.7331 415.961 86.0957C419.278 86.5226 422.062 88.2464 424.313 91.2669C426.708 94.4803 427.612 97.7052 427.025 100.942C426.55 104.194 424.931 106.85 422.167 108.91L370.978 147.058C368.214 149.118 365.191 149.822 361.906 149.171C358.67 148.584 355.95 146.812 353.747 143.856Z" fill="#FFF557"/>
</g>
<defs>
<filter id="filter0_in_178_396" x="0" y="0" width="432" height="157.922" filterUnits="userSpaceOnUse" color-interpolation-filters="sRGB">
<feFlood flood-opacity="0" result="BackgroundImageFix"/>
<feBlend mode="normal" in="SourceGraphic" in2="BackgroundImageFix" result="shape"/>
<feColorMatrix in="SourceAlpha" type="matrix" values="0 0 0 0 0 0 0 0 0 0 0 0 0 0 0 0 0 0 127 0" result="hardAlpha"/>
<feOffset dy="4"/>
<feGaussianBlur stdDeviation="2"/>
<feComposite in2="hardAlpha" operator="arithmetic" k2="-1" k3="1"/>
<feColorMatrix type="matrix" values="0 0 0 0 0 0 0 0 0 0 0 0 0 0 0 0 0 0 0.25 0"/>
<feBlend mode="normal" in2="shape" result="effect1_innerShadow_178_396"/>
<feTurbulence type="fractalNoise" baseFrequency="2 2" stitchTiles="stitch" numOctaves="3" result="noise" seed="8" />
<feColorMatrix in="noise" type="luminanceToAlpha" result="alphaNoise" />
<feComponentTransfer in="alphaNoise" result="coloredNoise1">
<feFuncA type="discrete" tableValues="1 1 1 1 1 1 1 1 1 1 1 1 1 1 1 1 1 1 1 1 1 1 1 1 1 1 1 1 1 1 1 1 1 1 1 1 1 1 1 1 1 1 1 1 1 1 1 1 1 1 1 0 0 0 0 0 0 0 0 0 0 0 0 0 0 0 0 0 0 0 0 0 0 0 0 0 0 0 0 0 0 0 0 0 0 0 0 0 0 0 0 0 0 0 0 0 0 0 0 0 "/>
</feComponentTransfer>
<feComposite operator="in" in2="effect1_innerShadow_178_396" in="coloredNoise1" result="noise1Clipped" />
<feFlood flood-color="rgba(0, 0, 0, 0.25)" result="color1Flood" />
<feComposite operator="in" in2="noise1Clipped" in="color1Flood" result="color1" />
<feMerge result="effect2_noise_178_396">
<feMergeNode in="effect1_innerShadow_178_396" />
<feMergeNode in="color1" />
</feMerge>
</filter>
</defs>
</svg>
