<svg width="428" height="508" viewBox="0 0 428 508" fill="none" xmlns="http://www.w3.org/2000/svg">
<g filter="url(#filter0_di_0_41)">
<path d="M0 25.0001C0 11.193 11.1661 7.33408e-05 24.9732 5.66017e-05C64.1789 9.07063e-06 137.31 -5.67158e-05 152.784 9.02062e-05C174.162 0.00029317 171.018 32.8634 208.743 32.8634C246.467 32.8634 242.695 -0.000196344 266.587 9.02062e-05C283.836 0.000297087 356.144 0.000205244 395.018 0.000138182C408.825 0.000114363 420 11.193 420 25.0001V475C420 488.807 408.807 500 395 500H25C11.1929 500 0 488.807 0 475V25.0001Z" fill="white"/>
</g>
<defs>
<filter id="filter0_di_0_41" x="0" y="0" width="428" height="508" filterUnits="userSpaceOnUse" color-interpolation-filters="sRGB">
<feFlood flood-opacity="0" result="BackgroundImageFix"/>
<feColorMatrix in="SourceAlpha" type="matrix" values="0 0 0 0 0 0 0 0 0 0 0 0 0 0 0 0 0 0 127 0" result="hardAlpha"/>
<feOffset dx="5" dy="5"/>
<feGaussianBlur stdDeviation="1.5"/>
<feComposite in2="hardAlpha" operator="out"/>
<feColorMatrix type="matrix" values="0 0 0 0 0 0 0 0 0 0 0 0 0 0 0 0 0 0 0.25 0"/>
<feBlend mode="normal" in2="BackgroundImageFix" result="effect1_dropShadow_0_41"/>
<feBlend mode="normal" in="SourceGraphic" in2="effect1_dropShadow_0_41" result="shape"/>
<feColorMatrix in="SourceAlpha" type="matrix" values="0 0 0 0 0 0 0 0 0 0 0 0 0 0 0 0 0 0 127 0" result="hardAlpha"/>
<feOffset dy="4"/>
<feGaussianBlur stdDeviation="5"/>
<feComposite in2="hardAlpha" operator="arithmetic" k2="-1" k3="1"/>
<feColorMatrix type="matrix" values="0 0 0 0 0.619608 0 0 0 0 0.0745098 0 0 0 0 0.247059 0 0 0 0.37 0"/>
<feBlend mode="normal" in2="shape" result="effect2_innerShadow_0_41"/>
</filter>
</defs>
</svg>
